<svg id="Layer_1" data-name="Layer 1" xmlns="http://www.w3.org/2000/svg" viewBox="0 0 1579 418"><defs><style>.cls-1{font-size:171px;font-family:CourierNewPS-BoldMT, Courier New;font-weight:700;letter-spacing:0.3em;}.cls-1,.cls-2{fill:#e2b977;}.cls-3{fill:none;stroke:#0a0908;stroke-miterlimit:10;}.cls-4{fill:#944e3d;}</style></defs><title>Artboard 1</title><text class="cls-1" transform="translate(483.35 312.2)">appetit</text><path class="cls-2" d="M220.29,70.55,189.8,43.49,174.66,30.18C64.15,132.83,59.17,304.7,59,316l62-.2C112.79,173.18,216.29,74.31,220.29,70.55Z"/><line class="cls-3" x1="60.05" y1="307.84" x2="121.45" y2="309.2"/><line class="cls-3" x1="61.3" y1="279.88" x2="122.11" y2="282.68"/><line class="cls-3" x1="61.91" y1="270.08" x2="122.73" y2="272.88"/><line class="cls-3" x1="65.78" y1="255.72" x2="126.8" y2="262.61"/><line class="cls-3" x1="60.01" y1="293.87" x2="121.35" y2="296.7"/><line class="cls-3" x1="66.44" y1="238.29" x2="125.24" y2="254.05"/><line class="cls-3" x1="70.19" y1="221.5" x2="128.24" y2="239.82"/><line class="cls-3" x1="102.62" y1="127.36" x2="157.63" y2="154.42"/><line class="cls-3" x1="95.6" y1="143.67" x2="152.44" y2="166.63"/><line class="cls-3" x1="88.3" y1="162.44" x2="145.42" y2="183.21"/><line class="cls-3" x1="81.55" y1="177.31" x2="140.05" y2="195.77"/><line class="cls-3" x1="78.52" y1="187.16" x2="136.52" y2="205.47"/><line class="cls-3" x1="76.47" y1="200.42" x2="136.28" y2="211.55"/><line class="cls-3" x1="72.67" y1="207.59" x2="130.68" y2="225.9"/><line class="cls-3" x1="112.89" y1="110.84" x2="165" y2="143.47"/><line class="cls-3" x1="121.12" y1="98.17" x2="170.25" y2="135.34"/><line class="cls-3" x1="126.17" y1="90.81" x2="174.89" y2="127.68"/><line class="cls-3" x1="132.86" y1="78.46" x2="183.27" y2="113.16"/><line class="cls-3" x1="140.9" y1="66.36" x2="186.58" y2="108.2"/><line class="cls-3" x1="153.94" y1="52.11" x2="199.23" y2="93.6"/><line class="cls-3" x1="164.02" y1="42.29" x2="206.3" y2="87.9"/><line class="cls-3" x1="170.4" y1="32.51" x2="215.7" y2="74"/><path class="cls-4" d="M174.76,199.26c2.9,0,2.9-4.5,0-4.5s-2.9,4.5,0,4.5Z"/><path class="cls-4" d="M168.77,192c2.9,0,2.9-4.5,0-4.5s-2.9,4.5,0,4.5Z"/><path class="cls-4" d="M172.16,183.58c2.89,0,2.9-4.5,0-4.5s-2.9,4.5,0,4.5Z"/><path class="cls-4" d="M179,173.74c2.89,0,2.9-4.5,0-4.5s-2.9,4.5,0,4.5Z"/><path class="cls-4" d="M188,166.43c2.9,0,2.9-4.5,0-4.5s-2.9,4.5,0,4.5Z"/><path class="cls-4" d="M201,163.54c2.9,0,2.9-4.5,0-4.5s-2.9,4.5,0,4.5Z"/><path class="cls-4" d="M214.32,165.68c2.9,0,2.9-4.5,0-4.5s-2.9,4.5,0,4.5Z"/><path class="cls-4" d="M224.58,171.45c2.9,0,2.9-4.5,0-4.5s-2.9,4.5,0,4.5Z"/><path class="cls-4" d="M232.31,183.51c2.89,0,2.9-4.5,0-4.5s-2.9,4.5,0,4.5Z"/><path class="cls-4" d="M234.92,197.16c2.89,0,2.9-4.5,0-4.5s-2.9,4.5,0,4.5Z"/><path class="cls-4" d="M232.85,209.32c2.89,0,2.9-4.5,0-4.5s-2.9,4.5,0,4.5Z"/><path class="cls-4" d="M224.27,222.51c2.89,0,2.9-4.5,0-4.5s-2.9,4.5,0,4.5Z"/><path class="cls-4" d="M213.82,231.28c2.89,0,2.9-4.5,0-4.5s-2.9,4.5,0,4.5Z"/><path class="cls-4" d="M201.22,234.32c2.89,0,2.9-4.5,0-4.5s-2.9,4.5,0,4.5Z"/><path class="cls-4" d="M189,233.44c2.9,0,2.9-4.5,0-4.5s-2.9,4.5,0,4.5Z"/><path class="cls-4" d="M177.89,225.7c2.89,0,2.9-4.5,0-4.5s-2.9,4.5,0,4.5Z"/><path class="cls-4" d="M170.93,214.77c2.9,0,2.9-4.5,0-4.5s-2.9,4.5,0,4.5Z"/><path class="cls-4" d="M168,205c2.89,0,2.9-4.5,0-4.5s-2.9,4.5,0,4.5Z"/><path class="cls-4" d="M180.46,209.28c2.9,0,2.9-4.5,0-4.5s-2.9,4.5,0,4.5Z"/><path class="cls-4" d="M183.65,219.5c2.89,0,2.9-4.5,0-4.5s-2.91,4.5,0,4.5Z"/><path class="cls-4" d="M194.47,223.87c2.9,0,2.9-4.5,0-4.5s-2.9,4.5,0,4.5Z"/><path class="cls-4" d="M206.43,223.42c2.9,0,2.9-4.5,0-4.5s-2.9,4.5,0,4.5Z"/><path class="cls-4" d="M194.23,212.4c2.9,0,2.9-4.5,0-4.5s-2.9,4.5,0,4.5Z"/><path class="cls-4" d="M188.6,203.22c2.89,0,2.9-4.5,0-4.5s-2.9,4.5,0,4.5Z"/><path class="cls-4" d="M182.47,194.25c2.9,0,2.9-4.5,0-4.5s-2.9,4.5,0,4.5Z"/><path class="cls-4" d="M182.79,183.41c2.9,0,2.9-4.5,0-4.5s-2.9,4.5,0,4.5Z"/><path class="cls-4" d="M191.41,177.14c2.9,0,2.9-4.5,0-4.5s-2.9,4.5,0,4.5Z"/><path class="cls-4" d="M201.64,174c2.89,0,2.9-4.5,0-4.5s-2.9,4.5,0,4.5Z"/><path class="cls-4" d="M212.26,175.82c2.9,0,2.9-4.5,0-4.5s-2.9,4.5,0,4.5Z"/><path class="cls-4" d="M191,190.36c2.89,0,2.9-4.5,0-4.5s-2.9,4.5,0,4.5Z"/><path class="cls-4" d="M199.29,184.79c2.9,0,2.9-4.5,0-4.5s-2.9,4.5,0,4.5Z"/><path class="cls-4" d="M197.56,199.13c2.9,0,2.9-4.5,0-4.5s-2.9,4.5,0,4.5Z"/><path class="cls-4" d="M204.24,210.76c2.89,0,2.9-4.5,0-4.5s-2.9,4.5,0,4.5Z"/><path class="cls-4" d="M214.36,216.88c2.89,0,2.9-4.5,0-4.5s-2.9,4.5,0,4.5Z"/><path class="cls-4" d="M221.66,208.86c2.89,0,2.9-4.5,0-4.5s-2.9,4.5,0,4.5Z"/><path class="cls-4" d="M212.59,203.16c2.89,0,2.9-4.5,0-4.5s-2.9,4.5,0,4.5Z"/><path class="cls-4" d="M205.21,193.28c2.89,0,2.9-4.5,0-4.5s-2.9,4.5,0,4.5Z"/><path class="cls-4" d="M215.23,187.58c2.89,0,2.9-4.5,0-4.5s-2.9,4.5,0,4.5Z"/><path class="cls-4" d="M222,198.86c2.9,0,2.9-4.5,0-4.5s-2.9,4.5,0,4.5Z"/><path class="cls-4" d="M222.31,181.1c2.9,0,2.9-4.5,0-4.5s-2.9,4.5,0,4.5Z"/><path class="cls-4" d="M254.61,107c2.9,0,2.9-4.5,0-4.5s-2.9,4.5,0,4.5Z"/><path class="cls-4" d="M247.49,101.06c2.89,0,2.9-4.5,0-4.5s-2.91,4.5,0,4.5Z"/><path class="cls-4" d="M234.8,101.45c2.9,0,2.9-4.5,0-4.5s-2.9,4.5,0,4.5Z"/><path class="cls-4" d="M234.94,111.7c2.9,0,2.9-4.5,0-4.5s-2.9,4.5,0,4.5Z"/><path class="cls-4" d="M238.24,122.2c2.89,0,2.9-4.5,0-4.5s-2.9,4.5,0,4.5Z"/><path class="cls-4" d="M243.9,130.4c2.89,0,2.9-4.5,0-4.5s-2.9,4.5,0,4.5Z"/><path class="cls-4" d="M253.39,136.68c2.89,0,2.9-4.5,0-4.5s-2.91,4.5,0,4.5Z"/><path class="cls-4" d="M266.25,139.63c2.9,0,2.9-4.5,0-4.5s-2.9,4.5,0,4.5Z"/><path class="cls-4" d="M276,138.26c2.9,0,2.9-4.5,0-4.5s-2.9,4.5,0,4.5Z"/><path class="cls-4" d="M269.3,131.08c2.9,0,2.9-4.5,0-4.5s-2.9,4.5,0,4.5Z"/><path class="cls-4" d="M270.61,121c2.89,0,2.9-4.5,0-4.5s-2.9,4.5,0,4.5Z"/><path class="cls-4" d="M259.59,128.38c2.9,0,2.9-4.5,0-4.5s-2.9,4.5,0,4.5Z"/><path class="cls-4" d="M252.28,121.29c2.89,0,2.9-4.5,0-4.5s-2.9,4.5,0,4.5Z"/><path class="cls-4" d="M244.13,114.18c2.89,0,2.9-4.5,0-4.5s-2.9,4.5,0,4.5Z"/><path class="cls-4" d="M262.73,114.26c2.9,0,2.9-4.5,0-4.5s-2.9,4.5,0,4.5Z"/><path class="cls-4" d="M283.17,210.26c2.9,0,2.9-4.5,0-4.5s-2.9,4.5,0,4.5Z"/><path class="cls-4" d="M286.47,221.79c2.89,0,2.9-4.5,0-4.5s-2.9,4.5,0,4.5Z"/><path class="cls-4" d="M295.07,230.76c2.89,0,2.9-4.5,0-4.5s-2.9,4.5,0,4.5Z"/><path class="cls-4" d="M308.1,236.85c2.9,0,2.9-4.5,0-4.5s-2.9,4.5,0,4.5Z"/><path class="cls-4" d="M322.85,235.67c2.89,0,2.9-4.5,0-4.5s-2.9,4.5,0,4.5Z"/><path class="cls-4" d="M334.76,229.88c2.9,0,2.9-4.5,0-4.5s-2.9,4.5,0,4.5Z"/><path class="cls-4" d="M342,222.19c2.89,0,2.9-4.5,0-4.5s-2.9,4.5,0,4.5Z"/><path class="cls-4" d="M347,212.62c2.89,0,2.9-4.5,0-4.5s-2.91,4.5,0,4.5Z"/><path class="cls-4" d="M348.66,200c2.89,0,2.9-4.5,0-4.5s-2.9,4.5,0,4.5Z"/><path class="cls-4" d="M347.25,190.9c2.9,0,2.9-4.5,0-4.5s-2.9,4.5,0,4.5Z"/><path class="cls-4" d="M338.29,182.8c2.9,0,2.9-4.5,0-4.5s-2.9,4.5,0,4.5Z"/><path class="cls-4" d="M329.72,175.26c2.9,0,2.9-4.5,0-4.5s-2.9,4.5,0,4.5Z"/><path class="cls-4" d="M318.45,165.82c2.9,0,2.9-4.5,0-4.5s-2.9,4.5,0,4.5Z"/><path class="cls-4" d="M306.94,167.08c2.89,0,2.9-4.5,0-4.5s-2.9,4.5,0,4.5Z"/><path class="cls-4" d="M296.32,173.18c2.9,0,2.9-4.5,0-4.5s-2.9,4.5,0,4.5Z"/><path class="cls-4" d="M287.62,183.12c2.89,0,2.9-4.5,0-4.5s-2.9,4.5,0,4.5Z"/><path class="cls-4" d="M282.52,196.75c2.89,0,2.9-4.5,0-4.5s-2.9,4.5,0,4.5Z"/><path class="cls-4" d="M292,192.85c2.9,0,2.9-4.5,0-4.5s-2.9,4.5,0,4.5Z"/><path class="cls-4" d="M297.41,182.59c2.9,0,2.9-4.5,0-4.5s-2.9,4.5,0,4.5Z"/><path class="cls-4" d="M305.75,176.58c2.89,0,2.9-4.5,0-4.5s-2.9,4.5,0,4.5Z"/><path class="cls-4" d="M315.51,175.63c2.89,0,2.9-4.5,0-4.5s-2.9,4.5,0,4.5Z"/><path class="cls-4" d="M327.76,185.68c2.89,0,2.9-4.5,0-4.5s-2.9,4.5,0,4.5Z"/><path class="cls-4" d="M336.64,192.94c2.9,0,2.91-4.5,0-4.5s-2.9,4.5,0,4.5Z"/><path class="cls-4" d="M340.22,204.78c2.89,0,2.9-4.5,0-4.5s-2.9,4.5,0,4.5Z"/><path class="cls-4" d="M336.29,214c2.9,0,2.9-4.5,0-4.5s-2.9,4.5,0,4.5Z"/><path class="cls-4" d="M324.82,224.23c2.89,0,2.9-4.5,0-4.5s-2.9,4.5,0,4.5Z"/><path class="cls-4" d="M314.49,227.6c2.89,0,2.9-4.5,0-4.5s-2.9,4.5,0,4.5Z"/><path class="cls-4" d="M303.33,227c2.89,0,2.9-4.5,0-4.5s-2.9,4.5,0,4.5Z"/><path class="cls-4" d="M296.86,220.28c2.9,0,2.9-4.5,0-4.5s-2.9,4.5,0,4.5Z"/><path class="cls-4" d="M291.68,205.35c2.9,0,2.9-4.5,0-4.5s-2.9,4.5,0,4.5Z"/><path class="cls-4" d="M298.89,211.72c2.9,0,2.9-4.5,0-4.5s-2.9,4.5,0,4.5Z"/><path class="cls-4" d="M300.7,196.15c2.89,0,2.9-4.5,0-4.5s-2.9,4.5,0,4.5Z"/><path class="cls-4" d="M309.26,186.56c2.89,0,2.9-4.5,0-4.5s-2.9,4.5,0,4.5Z"/><path class="cls-4" d="M318.46,185c2.89,0,2.9-4.5,0-4.5s-2.9,4.5,0,4.5Z"/><path class="cls-4" d="M331.49,200.64c2.9,0,2.91-4.5,0-4.5s-2.9,4.5,0,4.5Z"/><path class="cls-4" d="M325.66,213.57c2.9,0,2.9-4.5,0-4.5s-2.9,4.5,0,4.5Z"/><path class="cls-4" d="M316.2,218.31c2.9,0,2.9-4.5,0-4.5s-2.9,4.5,0,4.5Z"/><path class="cls-4" d="M306.91,216.59c2.89,0,2.9-4.5,0-4.5s-2.9,4.5,0,4.5Z"/><path class="cls-4" d="M306.32,204.94c2.89,0,2.9-4.5,0-4.5s-2.9,4.5,0,4.5Z"/><path class="cls-4" d="M316.1,208.48c2.89,0,2.9-4.5,0-4.5s-2.9,4.5,0,4.5Z"/><path class="cls-4" d="M311.65,195.27c2.9,0,2.9-4.5,0-4.5s-2.9,4.5,0,4.5Z"/><path class="cls-4" d="M322.71,194.64c2.89,0,2.9-4.5,0-4.5s-2.9,4.5,0,4.5Z"/><path class="cls-4" d="M323.24,203.42c2.89,0,2.9-4.5,0-4.5s-2.9,4.5,0,4.5Z"/><path class="cls-4" d="M397.39,235.82c2.89,0,2.9-4.5,0-4.5s-2.9,4.5,0,4.5Z"/><path class="cls-4" d="M404.41,241.85c2.89,0,2.9-4.5,0-4.5s-2.9,4.5,0,4.5Z"/><path class="cls-4" d="M413.55,250.47c2.89,0,2.9-4.5,0-4.5s-2.91,4.5,0,4.5Z"/><path class="cls-4" d="M424.32,259.59c2.9,0,2.9-4.5,0-4.5s-2.9,4.5,0,4.5Z"/><path class="cls-4" d="M434.15,268c2.9,0,2.9-4.5,0-4.5s-2.9,4.5,0,4.5Z"/><path class="cls-4" d="M442.68,276.24c2.9,0,2.9-4.5,0-4.5s-2.9,4.5,0,4.5Z"/><path class="cls-4" d="M439.82,284.47c2.89,0,2.9-4.5,0-4.5s-2.9,4.5,0,4.5Z"/><path class="cls-4" d="M432.05,293.8c2.89,0,2.9-4.5,0-4.5s-2.9,4.5,0,4.5Z"/><path class="cls-4" d="M421.8,299.35c2.9,0,2.9-4.5,0-4.5s-2.9,4.5,0,4.5Z"/><path class="cls-4" d="M413.44,302.9c2.9,0,2.9-4.5,0-4.5s-2.9,4.5,0,4.5Z"/><path class="cls-4" d="M399.57,301.45c2.89,0,2.9-4.5,0-4.5s-2.9,4.5,0,4.5Z"/><path class="cls-4" d="M388.94,295c2.89,0,2.9-4.5,0-4.5s-2.9,4.5,0,4.5Z"/><path class="cls-4" d="M382.08,286.84c2.89,0,2.9-4.5,0-4.5s-2.9,4.5,0,4.5Z"/><path class="cls-4" d="M378.43,276.44c2.9,0,2.9-4.5,0-4.5s-2.9,4.5,0,4.5Z"/><path class="cls-4" d="M378.05,265.21c2.89,0,2.9-4.5,0-4.5s-2.91,4.5,0,4.5Z"/><path class="cls-4" d="M380.84,254.49c2.89,0,2.9-4.5,0-4.5s-2.9,4.5,0,4.5Z"/><path class="cls-4" d="M386,245.05c2.89,0,2.9-4.5,0-4.5s-2.9,4.5,0,4.5Z"/><path class="cls-4" d="M396.55,246.83c2.89,0,2.9-4.5,0-4.5s-2.9,4.5,0,4.5Z"/><path class="cls-4" d="M403.25,253.85c2.9,0,2.9-4.5,0-4.5s-2.9,4.5,0,4.5Z"/><path class="cls-4" d="M414.07,261c2.89,0,2.9-4.5,0-4.5s-2.9,4.5,0,4.5Z"/><path class="cls-4" d="M424.5,269.82c2.9,0,2.9-4.5,0-4.5s-2.9,4.5,0,4.5Z"/><path class="cls-4" d="M432.39,278.85c2.9,0,2.9-4.5,0-4.5s-2.9,4.5,0,4.5Z"/><path class="cls-4" d="M423.19,288.68c2.9,0,2.9-4.5,0-4.5s-2.9,4.5,0,4.5Z"/><path class="cls-4" d="M420.07,278.49c2.9,0,2.9-4.5,0-4.5s-2.9,4.5,0,4.5Z"/><path class="cls-4" d="M411.33,270.81c2.89,0,2.9-4.5,0-4.5s-2.9,4.5,0,4.5Z"/><path class="cls-4" d="M403.91,264.42c2.89,0,2.9-4.5,0-4.5s-2.9,4.5,0,4.5Z"/><path class="cls-4" d="M391.56,255.74c2.9,0,2.9-4.5,0-4.5s-2.9,4.5,0,4.5Z"/><path class="cls-4" d="M387.29,266.33c2.89,0,2.9-4.5,0-4.5s-2.9,4.5,0,4.5Z"/><path class="cls-4" d="M389,277.78c2.9,0,2.9-4.5,0-4.5s-2.9,4.5,0,4.5Z"/><path class="cls-4" d="M394.85,286.46c2.89,0,2.9-4.5,0-4.5s-2.9,4.5,0,4.5Z"/><path class="cls-4" d="M403.39,292.37c2.89,0,2.9-4.5,0-4.5s-2.9,4.5,0,4.5Z"/><path class="cls-4" d="M413.24,293.12c2.9,0,2.9-4.5,0-4.5s-2.9,4.5,0,4.5Z"/><path class="cls-4" d="M412.13,283.29c2.9,0,2.9-4.5,0-4.5s-2.9,4.5,0,4.5Z"/><path class="cls-4" d="M403.06,280.24c2.89,0,2.9-4.5,0-4.5s-2.9,4.5,0,4.5Z"/><path class="cls-4" d="M398.47,272.54c2.9,0,2.9-4.5,0-4.5s-2.9,4.5,0,4.5Z"/><path class="cls-4" d="M395,263.15c2.89,0,2.9-4.5,0-4.5s-2.91,4.5,0,4.5Z"/><path class="cls-4" d="M261,314.16c2.9,0,2.9-4.5,0-4.5s-2.9,4.5,0,4.5Z"/><path class="cls-4" d="M256.57,305.15c2.9,0,2.9-4.5,0-4.5s-2.9,4.5,0,4.5Z"/><path class="cls-4" d="M257.32,293.22c2.9,0,2.9-4.5,0-4.5s-2.9,4.5,0,4.5Z"/><path class="cls-4" d="M260.37,283.38c2.9,0,2.9-4.5,0-4.5s-2.9,4.5,0,4.5Z"/><path class="cls-4" d="M266.07,274.6c2.9,0,2.9-4.5,0-4.5s-2.9,4.5,0,4.5Z"/><path class="cls-4" d="M275.05,267.61c2.9,0,2.9-4.5,0-4.5s-2.9,4.5,0,4.5Z"/><path class="cls-4" d="M287.47,262.78c2.89,0,2.9-4.5,0-4.5s-2.9,4.5,0,4.5Z"/><path class="cls-4" d="M297.46,262.81c2.89,0,2.9-4.5,0-4.5s-2.9,4.5,0,4.5Z"/><path class="cls-4" d="M308.46,267.57c2.9,0,2.9-4.5,0-4.5s-2.9,4.5,0,4.5Z"/><path class="cls-4" d="M317.68,275.6c2.9,0,2.9-4.5,0-4.5s-2.9,4.5,0,4.5Z"/><path class="cls-4" d="M322.86,286.77c2.9,0,2.9-4.5,0-4.5s-2.9,4.5,0,4.5Z"/><path class="cls-4" d="M323.7,296.9c2.89,0,2.9-4.5,0-4.5s-2.9,4.5,0,4.5Z"/><path class="cls-4" d="M319.94,314c2.89,0,2.9-4.5,0-4.5s-2.9,4.5,0,4.5Z"/><path class="cls-4" d="M322.71,305.81c2.89,0,2.9-4.5,0-4.5s-2.9,4.5,0,4.5Z"/><path class="cls-4" d="M316.08,294c2.9,0,2.9-4.5,0-4.5s-2.9,4.5,0,4.5Z"/><path class="cls-4" d="M313.94,284.09c2.9,0,2.9-4.5,0-4.5s-2.9,4.5,0,4.5Z"/><path class="cls-4" d="M305.91,277.31c2.9,0,2.9-4.5,0-4.5s-2.9,4.5,0,4.5Z"/><path class="cls-4" d="M296.07,272.72c2.9,0,2.9-4.5,0-4.5s-2.9,4.5,0,4.5Z"/><path class="cls-4" d="M284.63,272.09c2.89,0,2.9-4.5,0-4.5s-2.9,4.5,0,4.5Z"/><path class="cls-4" d="M275.5,277.18c2.89,0,2.9-4.5,0-4.5s-2.9,4.5,0,4.5Z"/><path class="cls-4" d="M269.54,284.31c2.89,0,2.9-4.5,0-4.5s-2.9,4.5,0,4.5Z"/><path class="cls-4" d="M267,293.28c2.9,0,2.9-4.5,0-4.5s-2.9,4.5,0,4.5Z"/><path class="cls-4" d="M265.62,305.81c2.9,0,2.9-4.5,0-4.5s-2.9,4.5,0,4.5Z"/><path class="cls-4" d="M271.29,314.16c2.9,0,2.9-4.5,0-4.5s-2.9,4.5,0,4.5Z"/><path class="cls-4" d="M282.21,314c2.89,0,2.9-4.5,0-4.5s-2.9,4.5,0,4.5Z"/><path class="cls-4" d="M292.49,314c2.89,0,2.9-4.5,0-4.5s-2.9,4.5,0,4.5Z"/><path class="cls-4" d="M301.89,314c2.9,0,2.9-4.5,0-4.5s-2.9,4.5,0,4.5Z"/><path class="cls-4" d="M310.48,314c2.89,0,2.9-4.5,0-4.5s-2.9,4.5,0,4.5Z"/><path class="cls-4" d="M306.91,303.19c2.89,0,2.9-4.5,0-4.5s-2.9,4.5,0,4.5Z"/><path class="cls-4" d="M306.39,293.66c2.89,0,2.9-4.5,0-4.5s-2.9,4.5,0,4.5Z"/><path class="cls-4" d="M302.65,285.38c2.9,0,2.9-4.5,0-4.5s-2.9,4.5,0,4.5Z"/><path class="cls-4" d="M293,280.26c2.89,0,2.9-4.5,0-4.5s-2.9,4.5,0,4.5Z"/><path class="cls-4" d="M282.79,283.51c2.89,0,2.9-4.5,0-4.5s-2.9,4.5,0,4.5Z"/><path class="cls-4" d="M276.87,292.81c2.9,0,2.9-4.5,0-4.5s-2.9,4.5,0,4.5Z"/><path class="cls-4" d="M276.39,301.45c2.89,0,2.9-4.5,0-4.5s-2.91,4.5,0,4.5Z"/><path class="cls-4" d="M287.62,301.45c2.89,0,2.9-4.5,0-4.5s-2.9,4.5,0,4.5Z"/><path class="cls-4" d="M296,305.17c2.9,0,2.9-4.5,0-4.5s-2.9,4.5,0,4.5Z"/><path class="cls-4" d="M287,294c2.89,0,2.9-4.5,0-4.5s-2.9,4.5,0,4.5Z"/><path class="cls-4" d="M297.48,295.9c2.89,0,2.9-4.5,0-4.5s-2.9,4.5,0,4.5Z"/><path class="cls-4" d="M293.5,288.6c2.9,0,2.9-4.5,0-4.5s-2.9,4.5,0,4.5Z"/><path class="cls-4" d="M153.52,313.79c2.89,0,2.9-4.5,0-4.5s-2.9,4.5,0,4.5Z"/><path class="cls-4" d="M153.39,304.55c2.9,0,2.9-4.5,0-4.5s-2.9,4.5,0,4.5Z"/><path class="cls-4" d="M155.29,295.08c2.9,0,2.9-4.5,0-4.5s-2.9,4.5,0,4.5Z"/><path class="cls-4" d="M159.51,286.1c2.9,0,2.9-4.5,0-4.5s-2.9,4.5,0,4.5Z"/><path class="cls-4" d="M166,279.23c2.89,0,2.9-4.5,0-4.5s-2.9,4.5,0,4.5Z"/><path class="cls-4" d="M162.4,313.82c2.9,0,2.9-4.5,0-4.5s-2.9,4.5,0,4.5Z"/><path class="cls-4" d="M174.66,313.58c2.9,0,2.9-4.5,0-4.5s-2.9,4.5,0,4.5Z"/><path class="cls-4" d="M185.82,313.49c2.9,0,2.91-4.5,0-4.5s-2.9,4.5,0,4.5Z"/><path class="cls-4" d="M195.61,313.88c2.89,0,2.9-4.5,0-4.5s-2.91,4.5,0,4.5Z"/><path class="cls-4" d="M207.81,313.77c2.9,0,2.9-4.5,0-4.5s-2.9,4.5,0,4.5Z"/><path class="cls-4" d="M219.31,314c2.89,0,2.9-4.5,0-4.5s-2.9,4.5,0,4.5Z"/><path class="cls-4" d="M220.08,304.34c2.9,0,2.9-4.5,0-4.5s-2.9,4.5,0,4.5Z"/><path class="cls-4" d="M219.4,293.53c2.9,0,2.9-4.5,0-4.5s-2.9,4.5,0,4.5Z"/><path class="cls-4" d="M214.74,283.05c2.89,0,2.9-4.5,0-4.5s-2.9,4.5,0,4.5Z"/><path class="cls-4" d="M206.06,274.79c2.89,0,2.9-4.5,0-4.5s-2.9,4.5,0,4.5Z"/><path class="cls-4" d="M198,270.63c2.9,0,2.9-4.5,0-4.5s-2.9,4.5,0,4.5Z"/><path class="cls-4" d="M188.53,269.34c2.9,0,2.9-4.5,0-4.5s-2.9,4.5,0,4.5Z"/><path class="cls-4" d="M175.8,272.21c2.9,0,2.9-4.5,0-4.5s-2.9,4.5,0,4.5Z"/><path class="cls-4" d="M162,304.91c2.9,0,2.9-4.5,0-4.5s-2.9,4.5,0,4.5Z"/><path class="cls-4" d="M164.92,295.85c2.89,0,2.9-4.5,0-4.5s-2.9,4.5,0,4.5Z"/><path class="cls-4" d="M171.5,304.89c2.9,0,2.9-4.5,0-4.5s-2.9,4.5,0,4.5Z"/><path class="cls-4" d="M174.57,295.45c2.9,0,2.9-4.5,0-4.5s-2.9,4.5,0,4.5Z"/><path class="cls-4" d="M169.36,287.41c2.9,0,2.9-4.5,0-4.5s-2.9,4.5,0,4.5Z"/><path class="cls-4" d="M176.21,281.13c2.89,0,2.9-4.5,0-4.5s-2.9,4.5,0,4.5Z"/><path class="cls-4" d="M180.9,289c2.9,0,2.9-4.5,0-4.5s-2.9,4.5,0,4.5Z"/><path class="cls-4" d="M184.87,278.4c2.9,0,2.9-4.5,0-4.5s-2.9,4.5,0,4.5Z"/><path class="cls-4" d="M195.16,279c2.9,0,2.9-4.5,0-4.5s-2.9,4.5,0,4.5Z"/><path class="cls-4" d="M204.83,283.35c2.89,0,2.9-4.5,0-4.5s-2.9,4.5,0,4.5Z"/><path class="cls-4" d="M211.19,291.11c2.89,0,2.9-4.5,0-4.5s-2.9,4.5,0,4.5Z"/><path class="cls-4" d="M201.25,291.84c2.89,0,2.9-4.5,0-4.5s-2.9,4.5,0,4.5Z"/><path class="cls-4" d="M191.43,287.13c2.9,0,2.9-4.5,0-4.5s-2.9,4.5,0,4.5Z"/><path class="cls-4" d="M183.05,297.24c2.89,0,2.9-4.5,0-4.5s-2.9,4.5,0,4.5Z"/><path class="cls-4" d="M180.87,305.56c2.9,0,2.9-4.5,0-4.5s-2.9,4.5,0,4.5Z"/><path class="cls-4" d="M191.09,305.24c2.89,0,2.9-4.5,0-4.5s-2.9,4.5,0,4.5Z"/><path class="cls-4" d="M192.75,296.71c2.9,0,2.9-4.5,0-4.5s-2.9,4.5,0,4.5Z"/><path class="cls-4" d="M201.79,304.81c2.9,0,2.9-4.5,0-4.5s-2.9,4.5,0,4.5Z"/><path class="cls-4" d="M211.47,305.46c2.89,0,2.9-4.5,0-4.5s-2.9,4.5,0,4.5Z"/><path class="cls-4" d="M206.59,298.45c2.89,0,2.9-4.5,0-4.5s-2.9,4.5,0,4.5Z"/><path class="cls-4" d="M239.14,92.71c2.9,0,2.9-4.5,0-4.5s-2.9,4.5,0,4.5Z"/><path class="cls-4" d="M284.75,134.07c2.89,0,2.9-4.5,0-4.5s-2.9,4.5,0,4.5Z"/><path class="cls-4" d="M277.6,128.25c2.9,0,2.9-4.5,0-4.5s-2.9,4.5,0,4.5Z"/><path class="cls-4" d="M489.44,315.5c2.9,0,2.91-4.5,0-4.5s-2.9,4.5,0,4.5Z"/><path class="cls-4" d="M483.44,311c2.89,0,2.9-4.5,0-4.5s-2.9,4.5,0,4.5Z"/><path class="cls-4" d="M479.86,315.29c2.89,0,2.9-4.5,0-4.5s-2.9,4.5,0,4.5Z"/><path class="cls-4" d="M286.47,309.29c2.89,0,2.9-4.5,0-4.5s-2.9,4.5,0,4.5Z"/><path class="cls-4" d="M276.87,309.29c2.9,0,2.9-4.5,0-4.5s-2.9,4.5,0,4.5Z"/><path class="cls-4" d="M313.94,305.81c2.9,0,2.9-4.5,0-4.5s-2.9,4.5,0,4.5Z"/></svg>
